<svg id="visual" viewBox="0 0 960 540" width="960" height="540" xmlns="http://www.w3.org/2000/svg" xmlns:xlink="http://www.w3.org/1999/xlink" version="1.1"><rect x="0" y="0" width="960" height="540" fill="#F0F0F0"></rect><path d="M0 313L17.8 304.7C35.7 296.3 71.3 279.7 106.8 269C142.3 258.3 177.7 253.7 213.2 260.8C248.7 268 284.3 287 320 296.7C355.7 306.3 391.3 306.7 426.8 302.3C462.3 298 497.7 289 533.2 287C568.7 285 604.3 290 640 294.2C675.7 298.3 711.3 301.7 746.8 303.2C782.3 304.7 817.7 304.3 853.2 303.5C888.7 302.7 924.3 301.3 942.2 300.7L960 300L960 541L942.2 541C924.3 541 888.7 541 853.2 541C817.7 541 782.3 541 746.8 541C711.3 541 675.7 541 640 541C604.3 541 568.7 541 533.2 541C497.7 541 462.3 541 426.8 541C391.3 541 355.7 541 320 541C284.3 541 248.7 541 213.2 541C177.7 541 142.3 541 106.8 541C71.3 541 35.7 541 17.8 541L0 541Z" fill="#ccccf0"></path><path d="M0 339L17.8 340.3C35.7 341.7 71.3 344.3 106.8 351C142.3 357.7 177.7 368.3 213.2 367.7C248.7 367 284.3 355 320 348.7C355.7 342.3 391.3 341.7 426.8 345.8C462.3 350 497.7 359 533.2 363.5C568.7 368 604.3 368 640 368.5C675.7 369 711.3 370 746.8 365.3C782.3 360.7 817.7 350.3 853.2 351.2C888.7 352 924.3 364 942.2 370L960 376L960 541L942.2 541C924.3 541 888.7 541 853.2 541C817.7 541 782.3 541 746.8 541C711.3 541 675.7 541 640 541C604.3 541 568.7 541 533.2 541C497.7 541 462.3 541 426.8 541C391.3 541 355.7 541 320 541C284.3 541 248.7 541 213.2 541C177.7 541 142.3 541 106.8 541C71.3 541 35.7 541 17.8 541L0 541Z" fill="#b3b2f1"></path><path d="M0 437L17.8 432.8C35.7 428.7 71.3 420.3 106.8 417.7C142.3 415 177.7 418 213.2 421C248.7 424 284.3 427 320 430.2C355.7 433.3 391.3 436.7 426.8 437.2C462.3 437.7 497.7 435.3 533.2 437.3C568.7 439.3 604.3 445.7 640 448.7C675.7 451.7 711.3 451.3 746.8 450.7C782.3 450 817.7 449 853.2 443.2C888.7 437.3 924.3 426.7 942.2 421.3L960 416L960 541L942.2 541C924.3 541 888.7 541 853.2 541C817.7 541 782.3 541 746.8 541C711.3 541 675.7 541 640 541C604.3 541 568.7 541 533.2 541C497.7 541 462.3 541 426.8 541C391.3 541 355.7 541 320 541C284.3 541 248.7 541 213.2 541C177.7 541 142.3 541 106.8 541C71.3 541 35.7 541 17.8 541L0 541Z" fill="#9999f0"></path></svg>